<svg xmlns="http://www.w3.org/2000/svg" xmlns:xlink="http://www.w3.org/1999/xlink" id="eC5A01S4o8v1" viewBox="0 0 300 300" shape-rendering="geometricPrecision" text-rendering="geometricPrecision">
<g transform="translate(10.116989 199.293728)"><rect width="170.122274" height="15.948964" rx="0" ry="0" transform="translate(86.469963 40.40404)" fill="#4caf50" stroke-width="0" stroke-linecap="round" stroke-linejoin="round"/><path d="M254.617756,110.047847q1.974481,0,23.239767-12.759155h-45.720363q20.506114,12.759155,22.480596,12.759155Z" transform="matrix(-.002974-.999996 0.999996-.002974 159.130358 303.683058)" fill="#4caf50" stroke-width="0.6"/><ellipse rx="33.492823" ry="33.492823" transform="translate(41.371442 48.397496)" fill="#4caf50" stroke-width="0"/></g><g transform="translate(10.116986 101.602505)"><rect width="170.122274" height="15.948964" rx="0" ry="0" transform="translate(86.469963 40.40404)" fill="#4caf50" stroke-width="0" stroke-linecap="round" stroke-linejoin="round"/><path d="M254.617756,110.047847q1.974481,0,23.239767-12.759155h-45.720363q20.506114,12.759155,22.480596,12.759155Z" transform="matrix(-.002974-.999996 0.999996-.002974 159.130358 303.683058)" fill="#4caf50" stroke-width="0.6"/><ellipse rx="33.492823" ry="33.492823" transform="translate(41.371442 48.397496)" fill="#4caf50" stroke-width="0"/></g><g transform="translate(10.116983 5.835109)"><rect width="170.122274" height="15.948964" rx="0" ry="0" transform="translate(86.469963 40.40404)" fill="#4caf50" stroke-width="0" stroke-linecap="round" stroke-linejoin="round"/><path d="M254.617756,110.047847q1.974481,0,23.239767-12.759155h-45.720363q20.506114,12.759155,22.480596,12.759155Z" transform="matrix(-.002974-.999996 0.999996-.002974 159.130358 303.683058)" fill="#4caf50" stroke-width="0.6"/><ellipse rx="33.492823" ry="33.492823" transform="translate(41.371442 48.397496)" fill="#4caf50" stroke-width="0"/></g></svg>