<svg xmlns="http://www.w3.org/2000/svg" xmlns:xlink="http://www.w3.org/1999/xlink" id="eP07cRoZDQ31" viewBox="0 0 300 300" shape-rendering="geometricPrecision" text-rendering="geometricPrecision"><g transform="translate(.000001-2.416852)"><ellipse rx="33.492823" ry="33.492823" transform="translate(46.065922 253.208932)" fill="#4caf50" stroke-width="0"/><g transform="translate(4.253058 206.804896)"><rect width="170.122274" height="15.948964" rx="0" ry="0" transform="matrix(1 0 0 1.932467 86.469963 32.968099)" fill="#4caf50" stroke-width="0" stroke-linecap="round" stroke-linejoin="round"/><path d="M254.617756,110.047847q1.974481,0,23.239767-12.759155h-45.720363q20.506114,12.759155,22.480596,12.759155Z" transform="matrix(-.005264-1.770003 2.939443-.008742-41.341786 501.654327)" fill="#4caf50" stroke-width="0.6"/></g></g><g transform="translate(.888374-101.373211)"><ellipse rx="33.492823" ry="33.492823" transform="translate(46.065922 253.208932)" fill="#4caf50" stroke-width="0"/><g transform="translate(4.253058 206.804896)"><rect width="170.122274" height="15.948964" rx="0" ry="0" transform="matrix(1 0 0 1.932467 86.469963 32.968099)" fill="#4caf50" stroke-width="0" stroke-linecap="round" stroke-linejoin="round"/><path d="M254.617756,110.047847q1.974481,0,23.239767-12.759155h-45.720363q20.506114,12.759155,22.480596,12.759155Z" transform="matrix(-.005264-1.770003 2.939443-.008742-41.341786 501.654327)" fill="#4caf50" stroke-width="0.6"/></g></g><g transform="translate(1.129113-202.88106)"><ellipse rx="33.492823" ry="33.492823" transform="translate(46.065922 253.208932)" fill="#4caf50" stroke-width="0"/><g transform="translate(4.253058 206.804896)"><rect width="170.122274" height="15.948964" rx="0" ry="0" transform="matrix(1 0 0 1.932467 86.469963 32.968099)" fill="#4caf50" stroke-width="0" stroke-linecap="round" stroke-linejoin="round"/><path d="M254.617756,110.047847q1.974481,0,23.239767-12.759155h-45.720363q20.506114,12.759155,22.480596,12.759155Z" transform="matrix(-.005264-1.770003 2.939443-.008742-41.341786 501.654327)" fill="#4caf50" stroke-width="0.6"/></g></g></svg>