<svg xmlns="http://www.w3.org/2000/svg" xmlns:xlink="http://www.w3.org/1999/xlink" id="eA2nckwl4R91" viewBox="0 0 300 300" shape-rendering="geometricPrecision" text-rendering="geometricPrecision"><ellipse rx="33.492823" ry="33.492823" transform="translate(46.065922 46.378522)" fill="#4340d2" stroke-width="0"/><ellipse rx="33.492823" ry="33.492823" transform="translate(46.065922 253.208932)" fill="#4340d2" stroke-width="0"/><ellipse rx="33.492823" ry="33.492823" transform="translate(256.592237 150)" fill="#4340d2" stroke-width="0"/><g transform="translate(.000001-1.999999)"><rect width="170.122274" height="15.948964" rx="0" ry="0" transform="translate(86.469963 40.40404)" fill="#4340d2" stroke-width="0" stroke-linecap="round" stroke-linejoin="round"/><rect width="15.948962" height="71.770335" rx="0" ry="0" transform="matrix(1 0 0 0.822222 246.643275 40.40404)" fill="#4340d2" stroke-width="0"/><path d="M254.617756,110.047847q1.974481,0,23.239767-12.759155h-45.720363q20.506114,12.759155,22.480596,12.759155Z" transform="translate(.000001 0)" fill="#4340d2" stroke-width="0.6"/></g><g transform="matrix(-1 0 0 1 299.999985 103.668261)"><rect width="170.122274" height="15.948964" rx="0" ry="0" transform="translate(86.469963 40.40404)" fill="#4340d2" stroke-width="0" stroke-linecap="round" stroke-linejoin="round"/><rect width="15.948962" height="71.770335" rx="0" ry="0" transform="matrix(1 0 0 0.822222 246.643275 40.40404)" fill="#4340d2" stroke-width="0"/><path d="M254.617756,110.047847q1.974481,0,23.239767-12.759155h-45.720363q20.506114,12.759155,22.480596,12.759155Z" transform="translate(.000001 0)" fill="#4340d2" stroke-width="0.6"/></g><g transform="translate(4.253058 206.804896)"><rect width="170.122274" height="15.948964" rx="0" ry="0" transform="translate(86.469963 40.40404)" fill="#4340d2" stroke-width="0" stroke-linecap="round" stroke-linejoin="round"/><path d="M254.617756,110.047847q1.974481,0,23.239767-12.759155h-45.720363q20.506114,12.759155,22.480596,12.759155Z" transform="matrix(-.002974-.999996 0.999996-.002974 159.130358 303.683058)" fill="#4340d2" stroke-width="0.6"/></g></svg>