<svg xmlns="http://www.w3.org/2000/svg" xmlns:xlink="http://www.w3.org/1999/xlink" id="ezV345oCHYd1" viewBox="0 0 300 300" shape-rendering="geometricPrecision" text-rendering="geometricPrecision"><ellipse rx="33.492823" ry="33.492823" transform="translate(46.065922 46.378522)" fill="#4340d2" stroke-width="0"/><ellipse rx="33.492823" ry="33.492823" transform="translate(46.065922 253.208932)" fill="#4340d2" stroke-width="0"/><ellipse rx="33.492823" ry="33.492823" transform="translate(256.592237 150)" fill="#4340d2" stroke-width="0"/><g><rect width="170.122274" height="15.948964" rx="0" ry="0" transform="matrix(1 0 0 1.800001 86.469963 34.024446)" fill="#4340d2" stroke-width="0" stroke-linecap="round" stroke-linejoin="round"/><rect width="170.122274" height="15.948964" rx="0" ry="0" transform="matrix(0-.3875 1.826651 0 240.962378 99.946827)" fill="#4340d2" stroke-width="0" stroke-linecap="round" stroke-linejoin="round"/><path d="M254.617756,110.047847q1.974481,0,23.239767-12.759155h-45.720363q20.506114,12.759155,22.480596,12.759155Z" transform="matrix(1.78953 0 0 2.896838-200.250871-206.585828)" fill="#4340d2" stroke-width="0.6"/></g><g transform="translate(4.253058 206.804896)"><rect width="170.122274" height="15.948964" rx="0" ry="0" transform="matrix(1 0 0 1.932467 86.469963 32.968099)" fill="#4340d2" stroke-width="0" stroke-linecap="round" stroke-linejoin="round"/><path d="M254.617756,110.047847q1.974481,0,23.239767-12.759155h-45.720363q20.506114,12.759155,22.480596,12.759155Z" transform="matrix(-.005264-1.770003 2.939443-.008742-41.341786 501.654327)" fill="#4340d2" stroke-width="0.6"/></g><g transform="matrix(-1 0 0 1 301.635504 102.379521)"><rect width="170.122274" height="15.948964" rx="0" ry="0" transform="matrix(1 0 0 1.800001 86.469963 34.024446)" fill="#4340d2" stroke-width="0" stroke-linecap="round" stroke-linejoin="round"/><rect width="170.122274" height="15.948964" rx="0" ry="0" transform="matrix(0-.3875 1.826651 0 240.962378 99.946827)" fill="#4340d2" stroke-width="0" stroke-linecap="round" stroke-linejoin="round"/><path d="M254.617756,110.047847q1.974481,0,23.239767-12.759155h-45.720363q20.506114,12.759155,22.480596,12.759155Z" transform="matrix(1.78953 0 0 2.896838-200.250871-206.585828)" fill="#4340d2" stroke-width="0.6"/></g></svg>